<?xml version="1.0" encoding="iso-8859-1"?>
<!DOCTYPE svg PUBLIC "-//W3C//DTD SVG 1.1//EN" "http://www.w3.org/Graphics/SVG/1.1/DTD/svg11.dtd">
<svg 
 version="1.1" xmlns="http://www.w3.org/2000/svg" xmlns:xlink="http://www.w3.org/1999/xlink" x="0px" y="0px" width="512px"
	 height="512px" viewBox="0 0 512 512" enable-background="new 0 0 512 512" xml:space="preserve"
><g id="1b1c9b208ed950244c86edd4d2032ab0"><g></g><path display="inline" d="M499.362,413.521l-98.148-98.148c43.75-80.839,31.552-184.168-36.683-252.404
		C324.248,22.685,270.691,0.5,213.725,0.5c-56.967,0-110.524,22.185-150.807,62.468c-83.155,83.153-83.155,218.457,0,301.615
		c40.281,40.279,93.84,62.462,150.807,62.462c36.1,0,70.815-8.937,101.668-25.71l98.079,98.079c16.11,16.114,42.477,16.114,58.586,0
		l27.309-27.305C515.477,455.996,515.477,429.634,499.362,413.521z M106.858,320.644c-58.925-58.93-58.925-154.81,0-213.736
		c28.546-28.544,66.499-44.266,106.867-44.266c40.368,0,78.32,15.722,106.862,44.266c28.547,28.544,44.269,66.497,44.269,106.865
		c0,40.37-15.722,78.324-44.269,106.867c-28.542,28.542-66.492,44.264-106.862,44.264
		C173.355,364.903,135.402,349.182,106.858,320.644z M238.663,306.184c0,11.441-9.275,20.714-20.714,20.714
		c-68.53,0-124.284-55.753-124.284-124.283c0-11.439,9.274-20.714,20.714-20.714c11.439,0,20.714,9.275,20.714,20.714
		c0,45.686,37.17,82.855,82.856,82.855C229.388,285.47,238.663,294.743,238.663,306.184z"></path></g></svg>