<?xml version="1.0" encoding="iso-8859-1"?>
<!DOCTYPE svg PUBLIC "-//W3C//DTD SVG 1.1//EN" "http://www.w3.org/Graphics/SVG/1.1/DTD/svg11.dtd">
<svg 
 version="1.1" xmlns="http://www.w3.org/2000/svg" xmlns:xlink="http://www.w3.org/1999/xlink" x="0px" y="0px" width="512px"
	 height="512px" viewBox="0 0 512 512" enable-background="new 0 0 512 512" xml:space="preserve"
><g fill="#ffffff" id="1b1c9b208ed950244c86edd4d203c124"><g></g><path display="inline" d="M405.042,0.5H106.958C48.406,0.5,0.5,48.406,0.5,106.958v298.083C0.5,463.594,48.406,511.5,106.958,511.5
		h298.083c58.552,0,106.458-47.906,106.458-106.458V106.958C511.5,48.406,463.594,0.5,405.042,0.5z M273.985,405.694
		c-7.452,7.631-16.484,11.432-27.084,11.432c-10.608,0-19.72-3.801-27.338-11.432c-7.627-7.614-11.434-16.567-11.434-26.843
		c0-10.592,3.824-19.633,11.482-27.085c7.649-7.452,16.742-11.187,27.291-11.187c10.6,0,19.632,3.822,27.084,11.44
		c7.456,7.618,11.187,16.567,11.187,26.831C285.172,389.127,281.441,398.08,273.985,405.694z M294.267,239.445
		c-7.231,5.822-12.584,11.573-16.043,17.246c-3.465,5.677-5.542,10.667-6.229,14.958c-0.692,4.3-1.04,10.875-1.04,19.729
		c0,11.365-8.172,17.033-24.51,17.033c-8.592,0-14.541-1.909-17.865-5.723c-3.325-3.817-4.988-11.045-4.988-21.69
		c0-25.642,9.278-46.376,27.837-62.204c0.832-0.819,4.427-3.68,10.804-8.591c6.367-4.903,10.8-8.596,13.291-11.045
		c2.493-2.454,5.263-6.209,8.314-11.257c3.044-5.048,4.566-10.167,4.566-15.345c0-9.007-3.452-15.894-10.351-20.672
		c-6.901-4.77-15.875-7.157-26.908-7.157c-9.39,0-17.112,1.535-23.182,4.595c-6.078,3.069-10.079,6.454-12.01,10.155
		c-1.934,3.705-4.56,7.086-7.87,10.146c-3.311,3.065-7.45,4.604-12.416,4.604c-6.35,0-12.076-2.083-17.177-6.233
		c-5.111-4.159-7.658-9.977-7.658-17.454c0-13.294,7.198-25.895,21.599-37.805c14.401-11.91,34.482-17.861,60.243-17.861
		c26.309,0,47.629,6.508,63.981,19.524c16.339,13.021,24.511,29.368,24.511,49.025C341.167,190.017,325.53,215.354,294.267,239.445z
		"></path></g></svg>