<?xml version="1.0" encoding="iso-8859-1"?>
<!DOCTYPE svg PUBLIC "-//W3C//DTD SVG 1.1//EN" "http://www.w3.org/Graphics/SVG/1.1/DTD/svg11.dtd">
<svg 
 version="1.1" xmlns="http://www.w3.org/2000/svg" xmlns:xlink="http://www.w3.org/1999/xlink" x="0px" y="0px" width="512px"
	 height="512px" viewBox="0 0 512 512" enable-background="new 0 0 512 512" xml:space="preserve"
><g fill="#cc0011" id="5151e0c8492e5103c096af88a521859a"><g></g><path d="M256,43.083c-141.109,0-255.5,27.804-255.5,62.102c0,9.525,0,57.1,0,57.1c0,2.75,1.613,6.568,3.585,8.485L188.54,350.099
			c1.972,1.917,3.585,5.735,3.585,8.485v105.333c0,2.75,2.25,5,5,5h117.75c2.75,0,5-2.25,5-5V358.584
			c0-2.75,1.613-6.568,3.585-8.485L507.915,170.77c1.972-1.917,3.585-5.735,3.585-8.485c0,0,0-47.574,0-57.1
			C511.5,70.887,397.107,43.083,256,43.083z M250.324,149.541c-128.925,0-208.347-35.232-208.347-35.232
			c-2.514-1.115-2.514-2.94,0-4.055c0,0,79.422-35.233,208.347-35.233c128.926,0,208.346,35.233,208.346,35.233
			c2.514,1.115,2.514,2.94,0,4.055C458.67,114.309,379.25,149.541,250.324,149.541z"></path></g></svg>