<?xml version="1.0" encoding="iso-8859-1"?>
<!DOCTYPE svg PUBLIC "-//W3C//DTD SVG 1.1//EN" "http://www.w3.org/Graphics/SVG/1.1/DTD/svg11.dtd">
<svg 
 version="1.1" xmlns="http://www.w3.org/2000/svg" xmlns:xlink="http://www.w3.org/1999/xlink" x="0px" y="0px" width="512px"
	 height="512px" viewBox="0 0 512 512" style="enable-background:new 0 0 512 512;" xml:space="preserve"
><g fill="#cc0011" id="afcae5a789ccd549f9c6e2a2f80c2323"><g></g><path style="display: inline;" d="M256,0.5C114.894,0.5,0.5,114.893,0.5,256S114.894,511.5,256,511.5
		c141.107,0,255.5-114.393,255.5-255.5S397.107,0.5,256,0.5z M422.528,384.087l-0.054,0.024
		c0.024,0.029-29.875,29.547-29.875,29.547c-13.736,14.252-93.584,41.365-217.37-85.292
		c-117.5-120.189-90.095-193.608-77.715-209.021l29.857-29.861c5.074-5.012,13.254-5.156,18.386-0.034
		c0.024,0.034,66.453,66.233,66.453,66.233v0.092c4.866,4.878,5.364,13.033,0,18.409v0.055c0,0.029-29.829,29.721-29.829,29.721
		c-12.089,12.093-0.374,29.271,12.862,45.632c18.88,23.366,40.67,44.047,59.55,59.435c28.586,23.271,43.474,33.538,55.047,21.994
		l29.649-29.805c5.078-5.008,13.254-5.127,18.368-0.024c0.029,0.024,64.616,64.365,64.616,64.365v0.092
		C427.353,370.555,427.881,378.705,422.528,384.087z"></path></g></svg>